<?xml version="1.0" encoding="UTF-8" standalone="no"?>
<!DOCTYPE svg PUBLIC "-//W3C//DTD SVG 1.1//EN"
 "http://www.w3.org/Graphics/SVG/1.1/DTD/svg11.dtd">
<!-- Generated by graphviz version 14.0.2 (20251019.1705)
 -->
<!-- Pages: 1 -->
<svg width="405pt" height="282pt"
 viewBox="0.00 0.00 405.00 282.00" xmlns="http://www.w3.org/2000/svg" xmlns:xlink="http://www.w3.org/1999/xlink">
<g id="graph0" class="graph" transform="scale(1 1) rotate(0) translate(4 278.4)">
<polygon fill="white" stroke="none" points="-4,4 -4,-278.4 401.35,-278.4 401.35,4 -4,4"/>
<text xml:space="preserve" text-anchor="middle" x="198.68" y="-257.1" font-family="Malgun Gothic" font-size="14.00">Ability Dependencies (Payloads &amp; Cleanup)</text>
<!-- efbf0adc&#45;d132&#45;54ee&#45;a10f&#45;e6a46ee78402 -->
<g id="node1" class="node">
<title>efbf0adc&#45;d132&#45;54ee&#45;a10f&#45;e6a46ee78402</title>
<path fill="#ffe0b2" stroke="black" d="M338.85,-39.9C338.85,-39.9 262.05,-39.9 262.05,-39.9 256.05,-39.9 250.05,-33.9 250.05,-27.9 250.05,-27.9 250.05,-12 250.05,-12 250.05,-6 256.05,0 262.05,0 262.05,0 338.85,0 338.85,0 344.85,0 350.85,-6 350.85,-12 350.85,-12 350.85,-27.9 350.85,-27.9 350.85,-33.9 344.85,-39.9 338.85,-39.9"/>
<text xml:space="preserve" text-anchor="middle" x="300.45" y="-24.15" font-family="Malgun Gothic" font-size="9.00">Upload Web Shell</text>
<text xml:space="preserve" text-anchor="middle" x="300.45" y="-11.4" font-family="Malgun Gothic" font-size="9.00">(efbf0adc)</text>
</g>
<!-- payload_cmd.asp -->
<g id="node2" class="node">
<title>payload_cmd.asp</title>
<polygon fill="#fff9c4" stroke="black" points="77.92,-37.95 21.37,-37.95 21.37,-1.95 83.92,-1.95 83.92,-31.95 77.92,-37.95"/>
<polyline fill="none" stroke="black" points="77.92,-37.95 77.92,-31.95"/>
<polyline fill="none" stroke="black" points="83.92,-31.95 77.92,-31.95"/>
<text xml:space="preserve" text-anchor="middle" x="52.65" y="-17.78" font-family="Malgun Gothic" font-size="9.00">cmd.asp</text>
</g>
<!-- payload_cmd.asp&#45;&gt;efbf0adc&#45;d132&#45;54ee&#45;a10f&#45;e6a46ee78402 -->
<g id="edge1" class="edge">
<title>payload_cmd.asp&#45;&gt;efbf0adc&#45;d132&#45;54ee&#45;a10f&#45;e6a46ee78402</title>
<path fill="none" stroke="black" d="M84.28,-19.95C123.7,-19.95 192.95,-19.95 242.24,-19.95"/>
<polygon fill="black" stroke="black" points="242.16,-22.05 248.16,-19.95 242.16,-17.85 242.16,-22.05"/>
<text xml:space="preserve" text-anchor="middle" x="154.43" y="-22.1" font-family="Times New Roman,serif" font-size="8.00">requires</text>
</g>
<!-- e6c1137b&#45;e69d&#45;5cd4&#45;9800&#45;c3696082a127 -->
<g id="node3" class="node">
<title>e6c1137b&#45;e69d&#45;5cd4&#45;9800&#45;c3696082a127</title>
<path fill="#e1bee7" stroke="black" d="M376.35,-108.9C376.35,-108.9 224.55,-108.9 224.55,-108.9 218.55,-108.9 212.55,-102.9 212.55,-96.9 212.55,-96.9 212.55,-81 212.55,-81 212.55,-75 218.55,-69 224.55,-69 224.55,-69 376.35,-69 376.35,-69 382.35,-69 388.35,-75 388.35,-81 388.35,-81 388.35,-96.9 388.35,-96.9 388.35,-102.9 382.35,-108.9 376.35,-108.9"/>
<text xml:space="preserve" text-anchor="middle" x="300.45" y="-93.15" font-family="Malgun Gothic" font-size="9.00">Copy PrintSpoofer to Web Directory</text>
<text xml:space="preserve" text-anchor="middle" x="300.45" y="-80.4" font-family="Malgun Gothic" font-size="9.00">(e6c1137b)</text>
</g>
<!-- payload_PrintSpoofer64.exe -->
<g id="node4" class="node">
<title>payload_PrintSpoofer64.exe</title>
<polygon fill="#fff9c4" stroke="black" points="99.3,-106.95 0,-106.95 0,-70.95 105.3,-70.95 105.3,-100.95 99.3,-106.95"/>
<polyline fill="none" stroke="black" points="99.3,-106.95 99.3,-100.95"/>
<polyline fill="none" stroke="black" points="105.3,-100.95 99.3,-100.95"/>
<text xml:space="preserve" text-anchor="middle" x="52.65" y="-86.78" font-family="Malgun Gothic" font-size="9.00">PrintSpoofer64.exe</text>
</g>
<!-- payload_PrintSpoofer64.exe&#45;&gt;e6c1137b&#45;e69d&#45;5cd4&#45;9800&#45;c3696082a127 -->
<g id="edge2" class="edge">
<title>payload_PrintSpoofer64.exe&#45;&gt;e6c1137b&#45;e69d&#45;5cd4&#45;9800&#45;c3696082a127</title>
<path fill="none" stroke="black" d="M105.78,-88.95C134.59,-88.95 171.28,-88.95 204.95,-88.95"/>
<polygon fill="black" stroke="black" points="204.57,-91.05 210.57,-88.95 204.57,-86.85 204.57,-91.05"/>
<text xml:space="preserve" text-anchor="middle" x="154.43" y="-91.1" font-family="Times New Roman,serif" font-size="8.00">requires</text>
</g>
<!-- 9f6a427a&#45;6f30&#45;591e&#45;a254&#45;8c1c1fabde62 -->
<g id="node5" class="node">
<title>9f6a427a&#45;6f30&#45;591e&#45;a254&#45;8c1c1fabde62</title>
<path fill="#e1bee7" stroke="black" d="M385.35,-177.9C385.35,-177.9 215.55,-177.9 215.55,-177.9 209.55,-177.9 203.55,-171.9 203.55,-165.9 203.55,-165.9 203.55,-150 203.55,-150 203.55,-144 209.55,-138 215.55,-138 215.55,-138 385.35,-138 385.35,-138 391.35,-138 397.35,-144 397.35,-150 397.35,-150 397.35,-165.9 397.35,-165.9 397.35,-171.9 391.35,-177.9 385.35,-177.9"/>
<text xml:space="preserve" text-anchor="middle" x="300.45" y="-162.15" font-family="Malgun Gothic" font-size="9.00">Copy vcruntime140.dll to Web Directory</text>
<text xml:space="preserve" text-anchor="middle" x="300.45" y="-149.4" font-family="Malgun Gothic" font-size="9.00">(9f6a427a)</text>
</g>
<!-- payload_vcruntime140.dll -->
<g id="node6" class="node">
<title>payload_vcruntime140.dll</title>
<polygon fill="#fff9c4" stroke="black" points="95.17,-175.95 4.12,-175.95 4.12,-139.95 101.17,-139.95 101.17,-169.95 95.17,-175.95"/>
<polyline fill="none" stroke="black" points="95.17,-175.95 95.17,-169.95"/>
<polyline fill="none" stroke="black" points="101.17,-169.95 95.17,-169.95"/>
<text xml:space="preserve" text-anchor="middle" x="52.65" y="-155.77" font-family="Malgun Gothic" font-size="9.00">vcruntime140.dll</text>
</g>
<!-- payload_vcruntime140.dll&#45;&gt;9f6a427a&#45;6f30&#45;591e&#45;a254&#45;8c1c1fabde62 -->
<g id="edge3" class="edge">
<title>payload_vcruntime140.dll&#45;&gt;9f6a427a&#45;6f30&#45;591e&#45;a254&#45;8c1c1fabde62</title>
<path fill="none" stroke="black" d="M101.63,-157.95C128.51,-157.95 163.14,-157.95 195.88,-157.95"/>
<polygon fill="black" stroke="black" points="195.76,-160.05 201.76,-157.95 195.76,-155.85 195.76,-160.05"/>
<text xml:space="preserve" text-anchor="middle" x="154.43" y="-160.1" font-family="Times New Roman,serif" font-size="8.00">requires</text>
</g>
<!-- 59a0db18&#45;03c2&#45;54e9&#45;a05e&#45;69904c66877d -->
<g id="node7" class="node">
<title>59a0db18&#45;03c2&#45;54e9&#45;a05e&#45;69904c66877d</title>
<path fill="#e1bee7" stroke="black" d="M378.6,-246.9C378.6,-246.9 222.3,-246.9 222.3,-246.9 216.3,-246.9 210.3,-240.9 210.3,-234.9 210.3,-234.9 210.3,-219 210.3,-219 210.3,-213 216.3,-207 222.3,-207 222.3,-207 378.6,-207 378.6,-207 384.6,-207 390.6,-213 390.6,-219 390.6,-219 390.6,-234.9 390.6,-234.9 390.6,-240.9 384.6,-246.9 378.6,-246.9"/>
<text xml:space="preserve" text-anchor="middle" x="300.45" y="-231.15" font-family="Malgun Gothic" font-size="9.00">Copy Deploy Script to Web Directory</text>
<text xml:space="preserve" text-anchor="middle" x="300.45" y="-218.4" font-family="Malgun Gothic" font-size="9.00">(59a0db18)</text>
</g>
<!-- payload_deploy.ps1 -->
<g id="node8" class="node">
<title>payload_deploy.ps1</title>
<polygon fill="#fff9c4" stroke="black" points="82.42,-244.95 16.87,-244.95 16.87,-208.95 88.42,-208.95 88.42,-238.95 82.42,-244.95"/>
<polyline fill="none" stroke="black" points="82.42,-244.95 82.42,-238.95"/>
<polyline fill="none" stroke="black" points="88.42,-238.95 82.42,-238.95"/>
<text xml:space="preserve" text-anchor="middle" x="52.65" y="-224.77" font-family="Malgun Gothic" font-size="9.00">deploy.ps1</text>
</g>
<!-- payload_deploy.ps1&#45;&gt;59a0db18&#45;03c2&#45;54e9&#45;a05e&#45;69904c66877d -->
<g id="edge4" class="edge">
<title>payload_deploy.ps1&#45;&gt;59a0db18&#45;03c2&#45;54e9&#45;a05e&#45;69904c66877d</title>
<path fill="none" stroke="black" d="M88.87,-226.95C118.55,-226.95 162.46,-226.95 202.52,-226.95"/>
<polygon fill="black" stroke="black" points="202.44,-229.05 208.44,-226.95 202.44,-224.85 202.44,-229.05"/>
<text xml:space="preserve" text-anchor="middle" x="154.43" y="-229.1" font-family="Times New Roman,serif" font-size="8.00">requires</text>
</g>
</g>
</svg>
