<?xml version="1.0" encoding="UTF-8" standalone="no"?>
<!DOCTYPE svg PUBLIC "-//W3C//DTD SVG 1.1//EN"
 "http://www.w3.org/Graphics/SVG/1.1/DTD/svg11.dtd">
<!-- Generated by graphviz version 14.0.2 (20251019.1705)
 -->
<!-- Pages: 1 -->
<svg width="767pt" height="4410pt"
 viewBox="0.00 0.00 767.00 4410.00" xmlns="http://www.w3.org/2000/svg" xmlns:xlink="http://www.w3.org/1999/xlink">
<g id="graph0" class="graph" transform="scale(1 1) rotate(0) translate(4 4405.53)">
<polygon fill="white" stroke="none" points="-4,4 -4,-4405.53 762.73,-4405.53 762.73,4 -4,4"/>
<text xml:space="preserve" text-anchor="middle" x="379.36" y="-4384.23" font-family="Malgun Gothic" font-size="14.00">Execution Order: KISA TTP Adversary</text>
<text xml:space="preserve" text-anchor="middle" x="379.36" y="-4364.73" font-family="Malgun Gothic" font-size="14.00">(38 abilities)</text>
<g id="clust1" class="cluster">
<title>cluster_legend</title>
<polygon fill="none" stroke="black" stroke-dasharray="5,2" points="232.72,-4265.23 232.72,-4346.53 750.73,-4346.53 750.73,-4265.23 232.72,-4265.23"/>
<text xml:space="preserve" text-anchor="middle" x="491.73" y="-4333.03" font-family="Malgun Gothic" font-size="10.00">Tactics</text>
</g>
<!-- ability_0 -->
<g id="node1" class="node">
<title>ability_0</title>
<path fill="#ffe0b2" stroke="black" d="M192.07,-4323.4C192.07,-4323.4 57.38,-4323.4 57.38,-4323.4 51.38,-4323.4 45.38,-4317.4 45.38,-4311.4 45.38,-4311.4 45.38,-4278.1 45.38,-4278.1 45.38,-4272.1 51.38,-4266.1 57.38,-4266.1 57.38,-4266.1 192.07,-4266.1 192.07,-4266.1 198.07,-4266.1 204.07,-4272.1 204.07,-4278.1 204.07,-4278.1 204.07,-4311.4 204.07,-4311.4 204.07,-4317.4 198.07,-4323.4 192.07,-4323.4"/>
<text xml:space="preserve" text-anchor="middle" x="124.72" y="-4299.5" font-family="Malgun Gothic" font-size="10.00">1. Web Application Login</text>
<text xml:space="preserve" text-anchor="middle" x="124.72" y="-4285.25" font-family="Malgun Gothic" font-size="10.00">T1133 (initial&#45;access)</text>
</g>
<!-- ability_1 -->
<g id="node2" class="node">
<title>ability_1</title>
<path fill="#ffe0b2" stroke="black" d="M180.82,-4208.1C180.82,-4208.1 68.62,-4208.1 68.62,-4208.1 62.62,-4208.1 56.62,-4202.1 56.62,-4196.1 56.62,-4196.1 56.62,-4162.8 56.62,-4162.8 56.62,-4156.8 62.62,-4150.8 68.62,-4150.8 68.62,-4150.8 180.82,-4150.8 180.82,-4150.8 186.82,-4150.8 192.82,-4156.8 192.82,-4162.8 192.82,-4162.8 192.82,-4196.1 192.82,-4196.1 192.82,-4202.1 186.82,-4208.1 180.82,-4208.1"/>
<text xml:space="preserve" text-anchor="middle" x="124.72" y="-4184.2" font-family="Malgun Gothic" font-size="10.00">2. Upload Web Shell</text>
<text xml:space="preserve" text-anchor="middle" x="124.72" y="-4169.95" font-family="Malgun Gothic" font-size="10.00">T1133 (initial&#45;access)</text>
</g>
<!-- ability_0&#45;&gt;ability_1 -->
<g id="edge1" class="edge">
<title>ability_0&#45;&gt;ability_1</title>
<path fill="none" stroke="#666666" d="M124.72,-4265.74C124.72,-4251.31 124.72,-4233.51 124.72,-4217.91"/>
<polygon fill="#666666" stroke="#666666" points="127.53,-4218.04 124.73,-4210.04 121.93,-4218.04 127.53,-4218.04"/>
</g>
<!-- ability_2 -->
<g id="node3" class="node">
<title>ability_2</title>
<path fill="#ffe0b2" stroke="black" d="M194.32,-4092.8C194.32,-4092.8 55.12,-4092.8 55.12,-4092.8 49.12,-4092.8 43.12,-4086.8 43.12,-4080.8 43.12,-4080.8 43.12,-4047.5 43.12,-4047.5 43.12,-4041.5 49.12,-4035.5 55.12,-4035.5 55.12,-4035.5 194.32,-4035.5 194.32,-4035.5 200.32,-4035.5 206.32,-4041.5 206.32,-4047.5 206.32,-4047.5 206.32,-4080.8 206.32,-4080.8 206.32,-4086.8 200.32,-4092.8 194.32,-4092.8"/>
<text xml:space="preserve" text-anchor="middle" x="124.72" y="-4068.9" font-family="Malgun Gothic" font-size="10.00">3. Verify Web Shell Access</text>
<text xml:space="preserve" text-anchor="middle" x="124.72" y="-4054.65" font-family="Malgun Gothic" font-size="10.00">T1133 (initial&#45;access)</text>
</g>
<!-- ability_1&#45;&gt;ability_2 -->
<g id="edge2" class="edge">
<title>ability_1&#45;&gt;ability_2</title>
<path fill="none" stroke="#666666" d="M124.72,-4150.44C124.72,-4136.01 124.72,-4118.21 124.72,-4102.61"/>
<polygon fill="#666666" stroke="#666666" points="127.53,-4102.74 124.73,-4094.74 121.93,-4102.74 127.53,-4102.74"/>
</g>
<!-- ability_3 -->
<g id="node4" class="node">
<title>ability_3</title>
<path fill="#e1bee7" stroke="black" d="M223.95,-3977.5C223.95,-3977.5 25.5,-3977.5 25.5,-3977.5 19.5,-3977.5 13.5,-3971.5 13.5,-3965.5 13.5,-3965.5 13.5,-3932.2 13.5,-3932.2 13.5,-3926.2 19.5,-3920.2 25.5,-3920.2 25.5,-3920.2 223.95,-3920.2 223.95,-3920.2 229.95,-3920.2 235.95,-3926.2 235.95,-3932.2 235.95,-3932.2 235.95,-3965.5 235.95,-3965.5 235.95,-3971.5 229.95,-3977.5 223.95,-3977.5"/>
<text xml:space="preserve" text-anchor="middle" x="124.72" y="-3953.6" font-family="Malgun Gothic" font-size="10.00">4. Copy PrintSpoofer to Web Directory</text>
<text xml:space="preserve" text-anchor="middle" x="124.72" y="-3939.35" font-family="Malgun Gothic" font-size="10.00">T1100 (privilege&#45;escalation)</text>
</g>
<!-- ability_2&#45;&gt;ability_3 -->
<g id="edge3" class="edge">
<title>ability_2&#45;&gt;ability_3</title>
<path fill="none" stroke="#666666" d="M124.72,-4035.14C124.72,-4020.71 124.72,-4002.91 124.72,-3987.31"/>
<polygon fill="#666666" stroke="#666666" points="127.53,-3987.44 124.73,-3979.44 121.93,-3987.44 127.53,-3987.44"/>
</g>
<!-- ability_4 -->
<g id="node5" class="node">
<title>ability_4</title>
<path fill="#e1bee7" stroke="black" d="M232.2,-3862.2C232.2,-3862.2 17.25,-3862.2 17.25,-3862.2 11.25,-3862.2 5.25,-3856.2 5.25,-3850.2 5.25,-3850.2 5.25,-3816.9 5.25,-3816.9 5.25,-3810.9 11.25,-3804.9 17.25,-3804.9 17.25,-3804.9 232.2,-3804.9 232.2,-3804.9 238.2,-3804.9 244.2,-3810.9 244.2,-3816.9 244.2,-3816.9 244.2,-3850.2 244.2,-3850.2 244.2,-3856.2 238.2,-3862.2 232.2,-3862.2"/>
<text xml:space="preserve" text-anchor="middle" x="124.72" y="-3838.3" font-family="Malgun Gothic" font-size="10.00">5. Copy vcruntime140.dll to Web Directory</text>
<text xml:space="preserve" text-anchor="middle" x="124.72" y="-3824.05" font-family="Malgun Gothic" font-size="10.00">T1038 (privilege&#45;escalation)</text>
</g>
<!-- ability_3&#45;&gt;ability_4 -->
<g id="edge4" class="edge">
<title>ability_3&#45;&gt;ability_4</title>
<path fill="none" stroke="#666666" d="M124.72,-3919.84C124.72,-3905.41 124.72,-3887.61 124.72,-3872.01"/>
<polygon fill="#666666" stroke="#666666" points="127.53,-3872.14 124.73,-3864.14 121.93,-3872.14 127.53,-3872.14"/>
</g>
<!-- ability_5 -->
<g id="node6" class="node">
<title>ability_5</title>
<path fill="#e1bee7" stroke="black" d="M226.2,-3746.9C226.2,-3746.9 23.25,-3746.9 23.25,-3746.9 17.25,-3746.9 11.25,-3740.9 11.25,-3734.9 11.25,-3734.9 11.25,-3701.6 11.25,-3701.6 11.25,-3695.6 17.25,-3689.6 23.25,-3689.6 23.25,-3689.6 226.2,-3689.6 226.2,-3689.6 232.2,-3689.6 238.2,-3695.6 238.2,-3701.6 238.2,-3701.6 238.2,-3734.9 238.2,-3734.9 238.2,-3740.9 232.2,-3746.9 226.2,-3746.9"/>
<text xml:space="preserve" text-anchor="middle" x="124.72" y="-3723" font-family="Malgun Gothic" font-size="10.00">6. Copy Deploy Script to Web Directory</text>
<text xml:space="preserve" text-anchor="middle" x="124.72" y="-3708.75" font-family="Malgun Gothic" font-size="10.00">T1100 (privilege&#45;escalation)</text>
</g>
<!-- ability_4&#45;&gt;ability_5 -->
<g id="edge5" class="edge">
<title>ability_4&#45;&gt;ability_5</title>
<path fill="none" stroke="#666666" d="M124.72,-3804.54C124.72,-3790.11 124.72,-3772.31 124.72,-3756.71"/>
<polygon fill="#666666" stroke="#666666" points="127.53,-3756.84 124.73,-3748.84 121.93,-3756.84 127.53,-3756.84"/>
</g>
<!-- ability_6 -->
<g id="node7" class="node">
<title>ability_6</title>
<path fill="#e1bee7" stroke="black" d="M232.57,-3631.6C232.57,-3631.6 16.88,-3631.6 16.88,-3631.6 10.88,-3631.6 4.88,-3625.6 4.88,-3619.6 4.88,-3619.6 4.88,-3586.3 4.88,-3586.3 4.88,-3580.3 10.88,-3574.3 16.88,-3574.3 16.88,-3574.3 232.57,-3574.3 232.57,-3574.3 238.57,-3574.3 244.57,-3580.3 244.57,-3586.3 244.57,-3586.3 244.57,-3619.6 244.57,-3619.6 244.57,-3625.6 238.57,-3631.6 232.57,-3631.6"/>
<text xml:space="preserve" text-anchor="middle" x="124.72" y="-3607.7" font-family="Malgun Gothic" font-size="10.00">7. Execute PrintSpoofer Privilege Escalation</text>
<text xml:space="preserve" text-anchor="middle" x="124.72" y="-3593.45" font-family="Malgun Gothic" font-size="10.00">T1068 (privilege&#45;escalation)</text>
</g>
<!-- ability_5&#45;&gt;ability_6 -->
<g id="edge6" class="edge">
<title>ability_5&#45;&gt;ability_6</title>
<path fill="none" stroke="#666666" d="M124.72,-3689.24C124.72,-3674.81 124.72,-3657.01 124.72,-3641.41"/>
<polygon fill="#666666" stroke="#666666" points="127.53,-3641.54 124.73,-3633.54 121.93,-3641.54 127.53,-3641.54"/>
</g>
<!-- ability_7 -->
<g id="node8" class="node">
<title>ability_7</title>
<path fill="#f8bbd0" stroke="black" d="M226.2,-3516.3C226.2,-3516.3 23.25,-3516.3 23.25,-3516.3 17.25,-3516.3 11.25,-3510.3 11.25,-3504.3 11.25,-3504.3 11.25,-3471 11.25,-3471 11.25,-3465 17.25,-3459 23.25,-3459 23.25,-3459 226.2,-3459 226.2,-3459 232.2,-3459 238.2,-3465 238.2,-3471 238.2,-3471 238.2,-3504.3 238.2,-3504.3 238.2,-3510.3 232.2,-3516.3 226.2,-3516.3"/>
<text xml:space="preserve" text-anchor="middle" x="124.72" y="-3492.4" font-family="Malgun Gothic" font-size="10.00">8. Create Scheduled Task for Persistence</text>
<text xml:space="preserve" text-anchor="middle" x="124.72" y="-3478.15" font-family="Malgun Gothic" font-size="10.00">T1053.005 (persistence)</text>
</g>
<!-- ability_6&#45;&gt;ability_7 -->
<g id="edge7" class="edge">
<title>ability_6&#45;&gt;ability_7</title>
<path fill="none" stroke="#666666" d="M124.72,-3573.94C124.72,-3559.51 124.72,-3541.71 124.72,-3526.11"/>
<polygon fill="#666666" stroke="#666666" points="127.53,-3526.24 124.73,-3518.24 121.93,-3526.24 127.53,-3526.24"/>
</g>
<!-- ability_8 -->
<g id="node9" class="node">
<title>ability_8</title>
<path fill="#f8bbd0" stroke="black" d="M207.45,-3401C207.45,-3401 42,-3401 42,-3401 36,-3401 30,-3395 30,-3389 30,-3389 30,-3355.7 30,-3355.7 30,-3349.7 36,-3343.7 42,-3343.7 42,-3343.7 207.45,-3343.7 207.45,-3343.7 213.45,-3343.7 219.45,-3349.7 219.45,-3355.7 219.45,-3355.7 219.45,-3389 219.45,-3389 219.45,-3395 213.45,-3401 207.45,-3401"/>
<text xml:space="preserve" text-anchor="middle" x="124.72" y="-3377.1" font-family="Malgun Gothic" font-size="10.00">9. Create Service for Persistence</text>
<text xml:space="preserve" text-anchor="middle" x="124.72" y="-3362.85" font-family="Malgun Gothic" font-size="10.00">T1543.003 (persistence)</text>
</g>
<!-- ability_7&#45;&gt;ability_8 -->
<g id="edge8" class="edge">
<title>ability_7&#45;&gt;ability_8</title>
<path fill="none" stroke="#666666" d="M124.72,-3458.64C124.72,-3444.21 124.72,-3426.41 124.72,-3410.81"/>
<polygon fill="#666666" stroke="#666666" points="127.53,-3410.94 124.73,-3402.94 121.93,-3410.94 127.53,-3410.94"/>
</g>
<!-- ability_9 -->
<g id="node10" class="node">
<title>ability_9</title>
<path fill="#c5cae9" stroke="black" d="M210.82,-3285.7C210.82,-3285.7 38.62,-3285.7 38.62,-3285.7 32.62,-3285.7 26.62,-3279.7 26.62,-3273.7 26.62,-3273.7 26.62,-3240.4 26.62,-3240.4 26.62,-3234.4 32.62,-3228.4 38.62,-3228.4 38.62,-3228.4 210.82,-3228.4 210.82,-3228.4 216.82,-3228.4 222.82,-3234.4 222.82,-3240.4 222.82,-3240.4 222.82,-3273.7 222.82,-3273.7 222.82,-3279.7 216.82,-3285.7 210.82,-3285.7"/>
<text xml:space="preserve" text-anchor="middle" x="124.72" y="-3261.8" font-family="Malgun Gothic" font-size="10.00">10. Deploy Keylogger (Simulated)</text>
<text xml:space="preserve" text-anchor="middle" x="124.72" y="-3247.55" font-family="Malgun Gothic" font-size="10.00">T1056.001 (credential&#45;access)</text>
</g>
<!-- ability_8&#45;&gt;ability_9 -->
<g id="edge9" class="edge">
<title>ability_8&#45;&gt;ability_9</title>
<path fill="none" stroke="#666666" d="M124.72,-3343.34C124.72,-3328.91 124.72,-3311.11 124.72,-3295.51"/>
<polygon fill="#666666" stroke="#666666" points="127.53,-3295.64 124.73,-3287.64 121.93,-3295.64 127.53,-3295.64"/>
</g>
<!-- ability_10 -->
<g id="node11" class="node">
<title>ability_10</title>
<path fill="#bbdefb" stroke="black" d="M204.82,-3170.4C204.82,-3170.4 44.62,-3170.4 44.62,-3170.4 38.62,-3170.4 32.62,-3164.4 32.62,-3158.4 32.62,-3158.4 32.62,-3125.1 32.62,-3125.1 32.62,-3119.1 38.62,-3113.1 44.62,-3113.1 44.62,-3113.1 204.82,-3113.1 204.82,-3113.1 210.82,-3113.1 216.82,-3119.1 216.82,-3125.1 216.82,-3125.1 216.82,-3158.4 216.82,-3158.4 216.82,-3164.4 210.82,-3170.4 204.82,-3170.4"/>
<text xml:space="preserve" text-anchor="middle" x="124.72" y="-3146.5" font-family="Malgun Gothic" font-size="10.00">11. Gather System Information</text>
<text xml:space="preserve" text-anchor="middle" x="124.72" y="-3132.25" font-family="Malgun Gothic" font-size="10.00">T1082 (discovery)</text>
</g>
<!-- ability_9&#45;&gt;ability_10 -->
<g id="edge10" class="edge">
<title>ability_9&#45;&gt;ability_10</title>
<path fill="none" stroke="#666666" d="M124.72,-3228.04C124.72,-3213.61 124.72,-3195.81 124.72,-3180.21"/>
<polygon fill="#666666" stroke="#666666" points="127.53,-3180.34 124.73,-3172.34 121.93,-3180.34 127.53,-3180.34"/>
</g>
<!-- ability_11 -->
<g id="node12" class="node">
<title>ability_11</title>
<path fill="#bbdefb" stroke="black" d="M210.45,-3055.1C210.45,-3055.1 39,-3055.1 39,-3055.1 33,-3055.1 27,-3049.1 27,-3043.1 27,-3043.1 27,-3009.8 27,-3009.8 27,-3003.8 33,-2997.8 39,-2997.8 39,-2997.8 210.45,-2997.8 210.45,-2997.8 216.45,-2997.8 222.45,-3003.8 222.45,-3009.8 222.45,-3009.8 222.45,-3043.1 222.45,-3043.1 222.45,-3049.1 216.45,-3055.1 210.45,-3055.1"/>
<text xml:space="preserve" text-anchor="middle" x="124.72" y="-3031.2" font-family="Malgun Gothic" font-size="10.00">12. Identify Current User Context</text>
<text xml:space="preserve" text-anchor="middle" x="124.72" y="-3016.95" font-family="Malgun Gothic" font-size="10.00">T1497.002 (discovery)</text>
</g>
<!-- ability_10&#45;&gt;ability_11 -->
<g id="edge11" class="edge">
<title>ability_10&#45;&gt;ability_11</title>
<path fill="none" stroke="#666666" d="M124.72,-3112.74C124.72,-3098.31 124.72,-3080.51 124.72,-3064.91"/>
<polygon fill="#666666" stroke="#666666" points="127.53,-3065.04 124.73,-3057.04 121.93,-3065.04 127.53,-3065.04"/>
</g>
<!-- ability_12 -->
<g id="node13" class="node">
<title>ability_12</title>
<path fill="#bbdefb" stroke="black" d="M215.32,-2939.8C215.32,-2939.8 34.12,-2939.8 34.12,-2939.8 28.12,-2939.8 22.12,-2933.8 22.12,-2927.8 22.12,-2927.8 22.12,-2894.5 22.12,-2894.5 22.12,-2888.5 28.12,-2882.5 34.12,-2882.5 34.12,-2882.5 215.32,-2882.5 215.32,-2882.5 221.32,-2882.5 227.32,-2888.5 227.32,-2894.5 227.32,-2894.5 227.32,-2927.8 227.32,-2927.8 227.32,-2933.8 221.32,-2939.8 215.32,-2939.8"/>
<text xml:space="preserve" text-anchor="middle" x="124.72" y="-2915.9" font-family="Malgun Gothic" font-size="10.00">13. Enumerate Local User Accounts</text>
<text xml:space="preserve" text-anchor="middle" x="124.72" y="-2901.65" font-family="Malgun Gothic" font-size="10.00">T1087.001 (discovery)</text>
</g>
<!-- ability_11&#45;&gt;ability_12 -->
<g id="edge12" class="edge">
<title>ability_11&#45;&gt;ability_12</title>
<path fill="none" stroke="#666666" d="M124.72,-2997.44C124.72,-2983.01 124.72,-2965.21 124.72,-2949.61"/>
<polygon fill="#666666" stroke="#666666" points="127.53,-2949.74 124.73,-2941.74 121.93,-2949.74 127.53,-2949.74"/>
</g>
<!-- ability_13 -->
<g id="node14" class="node">
<title>ability_13</title>
<path fill="#bbdefb" stroke="black" d="M210.07,-2824.5C210.07,-2824.5 39.38,-2824.5 39.38,-2824.5 33.38,-2824.5 27.38,-2818.5 27.38,-2812.5 27.38,-2812.5 27.38,-2779.2 27.38,-2779.2 27.38,-2773.2 33.38,-2767.2 39.38,-2767.2 39.38,-2767.2 210.07,-2767.2 210.07,-2767.2 216.07,-2767.2 222.07,-2773.2 222.07,-2779.2 222.07,-2779.2 222.07,-2812.5 222.07,-2812.5 222.07,-2818.5 216.07,-2824.5 210.07,-2824.5"/>
<text xml:space="preserve" text-anchor="middle" x="124.72" y="-2800.6" font-family="Malgun Gothic" font-size="10.00">14. Enumerate Domain Accounts</text>
<text xml:space="preserve" text-anchor="middle" x="124.72" y="-2786.35" font-family="Malgun Gothic" font-size="10.00">T1087.002 (discovery)</text>
</g>
<!-- ability_12&#45;&gt;ability_13 -->
<g id="edge13" class="edge">
<title>ability_12&#45;&gt;ability_13</title>
<path fill="none" stroke="#666666" d="M124.72,-2882.14C124.72,-2867.71 124.72,-2849.91 124.72,-2834.31"/>
<polygon fill="#666666" stroke="#666666" points="127.53,-2834.44 124.73,-2826.44 121.93,-2834.44 127.53,-2834.44"/>
</g>
<!-- ability_14 -->
<g id="node15" class="node">
<title>ability_14</title>
<path fill="#bbdefb" stroke="black" d="M212.32,-2709.2C212.32,-2709.2 37.12,-2709.2 37.12,-2709.2 31.12,-2709.2 25.12,-2703.2 25.12,-2697.2 25.12,-2697.2 25.12,-2663.9 25.12,-2663.9 25.12,-2657.9 31.12,-2651.9 37.12,-2651.9 37.12,-2651.9 212.32,-2651.9 212.32,-2651.9 218.32,-2651.9 224.32,-2657.9 224.32,-2663.9 224.32,-2663.9 224.32,-2697.2 224.32,-2697.2 224.32,-2703.2 218.32,-2709.2 212.32,-2709.2"/>
<text xml:space="preserve" text-anchor="middle" x="124.72" y="-2685.3" font-family="Malgun Gothic" font-size="10.00">15. Enumerate Running Processes</text>
<text xml:space="preserve" text-anchor="middle" x="124.72" y="-2671.05" font-family="Malgun Gothic" font-size="10.00">T1007 (discovery)</text>
</g>
<!-- ability_13&#45;&gt;ability_14 -->
<g id="edge14" class="edge">
<title>ability_13&#45;&gt;ability_14</title>
<path fill="none" stroke="#666666" d="M124.72,-2766.84C124.72,-2752.41 124.72,-2734.61 124.72,-2719.01"/>
<polygon fill="#666666" stroke="#666666" points="127.53,-2719.14 124.73,-2711.14 121.93,-2719.14 127.53,-2719.14"/>
</g>
<!-- ability_15 -->
<g id="node16" class="node">
<title>ability_15</title>
<path fill="#bbdefb" stroke="black" d="M205.2,-2593.9C205.2,-2593.9 44.25,-2593.9 44.25,-2593.9 38.25,-2593.9 32.25,-2587.9 32.25,-2581.9 32.25,-2581.9 32.25,-2548.6 32.25,-2548.6 32.25,-2542.6 38.25,-2536.6 44.25,-2536.6 44.25,-2536.6 205.2,-2536.6 205.2,-2536.6 211.2,-2536.6 217.2,-2542.6 217.2,-2548.6 217.2,-2548.6 217.2,-2581.9 217.2,-2581.9 217.2,-2587.9 211.2,-2593.9 205.2,-2593.9"/>
<text xml:space="preserve" text-anchor="middle" x="124.72" y="-2570" font-family="Malgun Gothic" font-size="10.00">16. Enumerate System Services</text>
<text xml:space="preserve" text-anchor="middle" x="124.72" y="-2555.75" font-family="Malgun Gothic" font-size="10.00">T1497.001 (discovery)</text>
</g>
<!-- ability_14&#45;&gt;ability_15 -->
<g id="edge15" class="edge">
<title>ability_14&#45;&gt;ability_15</title>
<path fill="none" stroke="#666666" d="M124.72,-2651.54C124.72,-2637.11 124.72,-2619.31 124.72,-2603.71"/>
<polygon fill="#666666" stroke="#666666" points="127.53,-2603.84 124.73,-2595.84 121.93,-2603.84 127.53,-2603.84"/>
</g>
<!-- ability_16 -->
<g id="node17" class="node">
<title>ability_16</title>
<path fill="#bbdefb" stroke="black" d="M204.07,-2478.6C204.07,-2478.6 45.38,-2478.6 45.38,-2478.6 39.38,-2478.6 33.38,-2472.6 33.38,-2466.6 33.38,-2466.6 33.38,-2433.3 33.38,-2433.3 33.38,-2427.3 39.38,-2421.3 45.38,-2421.3 45.38,-2421.3 204.07,-2421.3 204.07,-2421.3 210.07,-2421.3 216.07,-2427.3 216.07,-2433.3 216.07,-2433.3 216.07,-2466.6 216.07,-2466.6 216.07,-2472.6 210.07,-2478.6 204.07,-2478.6"/>
<text xml:space="preserve" text-anchor="middle" x="124.72" y="-2454.7" font-family="Malgun Gothic" font-size="10.00">17. Search Critical System Files</text>
<text xml:space="preserve" text-anchor="middle" x="124.72" y="-2440.45" font-family="Malgun Gothic" font-size="10.00">T1033 (discovery)</text>
</g>
<!-- ability_15&#45;&gt;ability_16 -->
<g id="edge16" class="edge">
<title>ability_15&#45;&gt;ability_16</title>
<path fill="none" stroke="#666666" d="M124.72,-2536.24C124.72,-2521.81 124.72,-2504.01 124.72,-2488.41"/>
<polygon fill="#666666" stroke="#666666" points="127.53,-2488.54 124.73,-2480.54 121.93,-2488.54 127.53,-2488.54"/>
</g>
<!-- ability_17 -->
<g id="node18" class="node">
<title>ability_17</title>
<path fill="#bbdefb" stroke="black" d="M221.7,-2363.3C221.7,-2363.3 27.75,-2363.3 27.75,-2363.3 21.75,-2363.3 15.75,-2357.3 15.75,-2351.3 15.75,-2351.3 15.75,-2318 15.75,-2318 15.75,-2312 21.75,-2306 27.75,-2306 27.75,-2306 221.7,-2306 221.7,-2306 227.7,-2306 233.7,-2312 233.7,-2318 233.7,-2318 233.7,-2351.3 233.7,-2351.3 233.7,-2357.3 227.7,-2363.3 221.7,-2363.3"/>
<text xml:space="preserve" text-anchor="middle" x="124.72" y="-2339.4" font-family="Malgun Gothic" font-size="10.00">18. Enumerate Network Configuration</text>
<text xml:space="preserve" text-anchor="middle" x="124.72" y="-2325.15" font-family="Malgun Gothic" font-size="10.00">T1016 (discovery)</text>
</g>
<!-- ability_16&#45;&gt;ability_17 -->
<g id="edge17" class="edge">
<title>ability_16&#45;&gt;ability_17</title>
<path fill="none" stroke="#666666" d="M124.72,-2420.94C124.72,-2406.51 124.72,-2388.71 124.72,-2373.11"/>
<polygon fill="#666666" stroke="#666666" points="127.53,-2373.24 124.73,-2365.24 121.93,-2373.24 127.53,-2373.24"/>
</g>
<!-- ability_18 -->
<g id="node19" class="node">
<title>ability_18</title>
<path fill="#bbdefb" stroke="black" d="M191.7,-2248C191.7,-2248 57.75,-2248 57.75,-2248 51.75,-2248 45.75,-2242 45.75,-2236 45.75,-2236 45.75,-2202.7 45.75,-2202.7 45.75,-2196.7 51.75,-2190.7 57.75,-2190.7 57.75,-2190.7 191.7,-2190.7 191.7,-2190.7 197.7,-2190.7 203.7,-2196.7 203.7,-2202.7 203.7,-2202.7 203.7,-2236 203.7,-2236 203.7,-2242 197.7,-2248 191.7,-2248"/>
<text xml:space="preserve" text-anchor="middle" x="124.72" y="-2224.1" font-family="Malgun Gothic" font-size="10.00">19. Enumerate ARP Table</text>
<text xml:space="preserve" text-anchor="middle" x="124.72" y="-2209.85" font-family="Malgun Gothic" font-size="10.00">T1018 (discovery)</text>
</g>
<!-- ability_17&#45;&gt;ability_18 -->
<g id="edge18" class="edge">
<title>ability_17&#45;&gt;ability_18</title>
<path fill="none" stroke="#666666" d="M124.72,-2305.64C124.72,-2291.21 124.72,-2273.41 124.72,-2257.81"/>
<polygon fill="#666666" stroke="#666666" points="127.53,-2257.94 124.73,-2249.94 121.93,-2257.94 127.53,-2257.94"/>
</g>
<!-- ability_19 -->
<g id="node20" class="node">
<title>ability_19</title>
<path fill="#bbdefb" stroke="black" d="M200.32,-2132.7C200.32,-2132.7 49.12,-2132.7 49.12,-2132.7 43.12,-2132.7 37.12,-2126.7 37.12,-2120.7 37.12,-2120.7 37.12,-2087.4 37.12,-2087.4 37.12,-2081.4 43.12,-2075.4 49.12,-2075.4 49.12,-2075.4 200.32,-2075.4 200.32,-2075.4 206.32,-2075.4 212.32,-2081.4 212.32,-2087.4 212.32,-2087.4 212.32,-2120.7 212.32,-2120.7 212.32,-2126.7 206.32,-2132.7 200.32,-2132.7"/>
<text xml:space="preserve" text-anchor="middle" x="124.72" y="-2108.8" font-family="Malgun Gothic" font-size="10.00">20. Enumerate Routing Table</text>
<text xml:space="preserve" text-anchor="middle" x="124.72" y="-2094.55" font-family="Malgun Gothic" font-size="10.00">T1040 (discovery)</text>
</g>
<!-- ability_18&#45;&gt;ability_19 -->
<g id="edge19" class="edge">
<title>ability_18&#45;&gt;ability_19</title>
<path fill="none" stroke="#666666" d="M124.72,-2190.34C124.72,-2175.91 124.72,-2158.11 124.72,-2142.51"/>
<polygon fill="#666666" stroke="#666666" points="127.53,-2142.64 124.73,-2134.64 121.93,-2142.64 127.53,-2142.64"/>
</g>
<!-- ability_20 -->
<g id="node21" class="node">
<title>ability_20</title>
<path fill="#bbdefb" stroke="black" d="M227.7,-2017.4C227.7,-2017.4 21.75,-2017.4 21.75,-2017.4 15.75,-2017.4 9.75,-2011.4 9.75,-2005.4 9.75,-2005.4 9.75,-1972.1 9.75,-1972.1 9.75,-1966.1 15.75,-1960.1 21.75,-1960.1 21.75,-1960.1 227.7,-1960.1 227.7,-1960.1 233.7,-1960.1 239.7,-1966.1 239.7,-1972.1 239.7,-1972.1 239.7,-2005.4 239.7,-2005.4 239.7,-2011.4 233.7,-2017.4 227.7,-2017.4"/>
<text xml:space="preserve" text-anchor="middle" x="124.72" y="-1993.5" font-family="Malgun Gothic" font-size="10.00">21. Monitor Active Network Connections</text>
<text xml:space="preserve" text-anchor="middle" x="124.72" y="-1979.25" font-family="Malgun Gothic" font-size="10.00">T1049 (discovery)</text>
</g>
<!-- ability_19&#45;&gt;ability_20 -->
<g id="edge20" class="edge">
<title>ability_19&#45;&gt;ability_20</title>
<path fill="none" stroke="#666666" d="M124.72,-2075.04C124.72,-2060.61 124.72,-2042.81 124.72,-2027.21"/>
<polygon fill="#666666" stroke="#666666" points="127.53,-2027.34 124.73,-2019.34 121.93,-2027.34 127.53,-2027.34"/>
</g>
<!-- ability_21 -->
<g id="node22" class="node">
<title>ability_21</title>
<path fill="#bbdefb" stroke="black" d="M203.7,-1902.1C203.7,-1902.1 45.75,-1902.1 45.75,-1902.1 39.75,-1902.1 33.75,-1896.1 33.75,-1890.1 33.75,-1890.1 33.75,-1856.8 33.75,-1856.8 33.75,-1850.8 39.75,-1844.8 45.75,-1844.8 45.75,-1844.8 203.7,-1844.8 203.7,-1844.8 209.7,-1844.8 215.7,-1850.8 215.7,-1856.8 215.7,-1856.8 215.7,-1890.1 215.7,-1890.1 215.7,-1896.1 209.7,-1902.1 203.7,-1902.1"/>
<text xml:space="preserve" text-anchor="middle" x="124.72" y="-1878.2" font-family="Malgun Gothic" font-size="10.00">22. Enumerate Active Sessions</text>
<text xml:space="preserve" text-anchor="middle" x="124.72" y="-1863.95" font-family="Malgun Gothic" font-size="10.00">T1033 (discovery)</text>
</g>
<!-- ability_20&#45;&gt;ability_21 -->
<g id="edge21" class="edge">
<title>ability_20&#45;&gt;ability_21</title>
<path fill="none" stroke="#666666" d="M124.72,-1959.74C124.72,-1945.31 124.72,-1927.51 124.72,-1911.91"/>
<polygon fill="#666666" stroke="#666666" points="127.53,-1912.04 124.73,-1904.04 121.93,-1912.04 127.53,-1912.04"/>
</g>
<!-- ability_22 -->
<g id="node23" class="node">
<title>ability_22</title>
<path fill="#bbdefb" stroke="black" d="M199.95,-1786.8C199.95,-1786.8 49.5,-1786.8 49.5,-1786.8 43.5,-1786.8 37.5,-1780.8 37.5,-1774.8 37.5,-1774.8 37.5,-1741.5 37.5,-1741.5 37.5,-1735.5 43.5,-1729.5 49.5,-1729.5 49.5,-1729.5 199.95,-1729.5 199.95,-1729.5 205.95,-1729.5 211.95,-1735.5 211.95,-1741.5 211.95,-1741.5 211.95,-1774.8 211.95,-1774.8 211.95,-1780.8 205.95,-1786.8 199.95,-1786.8"/>
<text xml:space="preserve" text-anchor="middle" x="124.72" y="-1762.9" font-family="Malgun Gothic" font-size="10.00">23. Discover Network Shares</text>
<text xml:space="preserve" text-anchor="middle" x="124.72" y="-1748.65" font-family="Malgun Gothic" font-size="10.00">T1135 (discovery)</text>
</g>
<!-- ability_21&#45;&gt;ability_22 -->
<g id="edge22" class="edge">
<title>ability_21&#45;&gt;ability_22</title>
<path fill="none" stroke="#666666" d="M124.72,-1844.44C124.72,-1830.01 124.72,-1812.21 124.72,-1796.61"/>
<polygon fill="#666666" stroke="#666666" points="127.53,-1796.74 124.73,-1788.74 121.93,-1796.74 127.53,-1796.74"/>
</g>
<!-- ability_23 -->
<g id="node24" class="node">
<title>ability_23</title>
<path fill="#bbdefb" stroke="black" d="M213.82,-1671.5C213.82,-1671.5 35.62,-1671.5 35.62,-1671.5 29.62,-1671.5 23.62,-1665.5 23.62,-1659.5 23.62,-1659.5 23.62,-1626.2 23.62,-1626.2 23.62,-1620.2 29.62,-1614.2 35.62,-1614.2 35.62,-1614.2 213.82,-1614.2 213.82,-1614.2 219.82,-1614.2 225.82,-1620.2 225.82,-1626.2 225.82,-1626.2 225.82,-1659.5 225.82,-1659.5 225.82,-1665.5 219.82,-1671.5 213.82,-1671.5"/>
<text xml:space="preserve" text-anchor="middle" x="124.72" y="-1647.6" font-family="Malgun Gothic" font-size="10.00">24. Enumerate Domain Controllers</text>
<text xml:space="preserve" text-anchor="middle" x="124.72" y="-1633.35" font-family="Malgun Gothic" font-size="10.00">T1482 (discovery)</text>
</g>
<!-- ability_22&#45;&gt;ability_23 -->
<g id="edge23" class="edge">
<title>ability_22&#45;&gt;ability_23</title>
<path fill="none" stroke="#666666" d="M124.72,-1729.14C124.72,-1714.71 124.72,-1696.91 124.72,-1681.31"/>
<polygon fill="#666666" stroke="#666666" points="127.53,-1681.44 124.73,-1673.44 121.93,-1681.44 127.53,-1681.44"/>
</g>
<!-- ability_24 -->
<g id="node25" class="node">
<title>ability_24</title>
<path fill="#b3e5fc" stroke="black" d="M219.07,-1556.2C219.07,-1556.2 30.38,-1556.2 30.38,-1556.2 24.38,-1556.2 18.38,-1550.2 18.38,-1544.2 18.38,-1544.2 18.38,-1510.9 18.38,-1510.9 18.38,-1504.9 24.38,-1498.9 30.38,-1498.9 30.38,-1498.9 219.07,-1498.9 219.07,-1498.9 225.07,-1498.9 231.07,-1504.9 231.07,-1510.9 231.07,-1510.9 231.07,-1544.2 231.07,-1544.2 231.07,-1550.2 225.07,-1556.2 219.07,-1556.2"/>
<text xml:space="preserve" text-anchor="middle" x="124.72" y="-1532.3" font-family="Malgun Gothic" font-size="10.00">25. Test SMB Access to Internal Host</text>
<text xml:space="preserve" text-anchor="middle" x="124.72" y="-1518.05" font-family="Malgun Gothic" font-size="10.00">T1550.001 (lateral&#45;movement)</text>
</g>
<!-- ability_23&#45;&gt;ability_24 -->
<g id="edge24" class="edge">
<title>ability_23&#45;&gt;ability_24</title>
<path fill="none" stroke="#666666" d="M124.72,-1613.84C124.72,-1599.41 124.72,-1581.61 124.72,-1566.01"/>
<polygon fill="#666666" stroke="#666666" points="127.53,-1566.14 124.73,-1558.14 121.93,-1566.14 127.53,-1566.14"/>
</g>
<!-- ability_25 -->
<g id="node26" class="node">
<title>ability_25</title>
<path fill="#b3e5fc" stroke="black" d="M227.7,-1440.9C227.7,-1440.9 21.75,-1440.9 21.75,-1440.9 15.75,-1440.9 9.75,-1434.9 9.75,-1428.9 9.75,-1428.9 9.75,-1395.6 9.75,-1395.6 9.75,-1389.6 15.75,-1383.6 21.75,-1383.6 21.75,-1383.6 227.7,-1383.6 227.7,-1383.6 233.7,-1383.6 239.7,-1389.6 239.7,-1395.6 239.7,-1395.6 239.7,-1428.9 239.7,-1428.9 239.7,-1434.9 233.7,-1440.9 227.7,-1440.9"/>
<text xml:space="preserve" text-anchor="middle" x="124.72" y="-1417" font-family="Malgun Gothic" font-size="10.00">26. Copy Caldera Agent to Internal Host</text>
<text xml:space="preserve" text-anchor="middle" x="124.72" y="-1402.75" font-family="Malgun Gothic" font-size="10.00">T1534 (lateral&#45;movement)</text>
</g>
<!-- ability_24&#45;&gt;ability_25 -->
<g id="edge25" class="edge">
<title>ability_24&#45;&gt;ability_25</title>
<path fill="none" stroke="#666666" d="M124.72,-1498.54C124.72,-1484.11 124.72,-1466.31 124.72,-1450.71"/>
<polygon fill="#666666" stroke="#666666" points="127.53,-1450.84 124.73,-1442.84 121.93,-1450.84 127.53,-1450.84"/>
</g>
<!-- ability_26 -->
<g id="node27" class="node">
<title>ability_26</title>
<path fill="#b3e5fc" stroke="black" d="M225.07,-1325.6C225.07,-1325.6 24.38,-1325.6 24.38,-1325.6 18.38,-1325.6 12.38,-1319.6 12.38,-1313.6 12.38,-1313.6 12.38,-1280.3 12.38,-1280.3 12.38,-1274.3 18.38,-1268.3 24.38,-1268.3 24.38,-1268.3 225.07,-1268.3 225.07,-1268.3 231.07,-1268.3 237.07,-1274.3 237.07,-1280.3 237.07,-1280.3 237.07,-1313.6 237.07,-1313.6 237.07,-1319.6 231.07,-1325.6 225.07,-1325.6"/>
<text xml:space="preserve" text-anchor="middle" x="124.72" y="-1301.7" font-family="Malgun Gothic" font-size="10.00">27. Execute Remote Agent Deployment</text>
<text xml:space="preserve" text-anchor="middle" x="124.72" y="-1287.45" font-family="Malgun Gothic" font-size="10.00">T1021 (lateral&#45;movement)</text>
</g>
<!-- ability_25&#45;&gt;ability_26 -->
<g id="edge26" class="edge">
<title>ability_25&#45;&gt;ability_26</title>
<path fill="none" stroke="#666666" d="M124.72,-1383.24C124.72,-1368.81 124.72,-1351.01 124.72,-1335.41"/>
<polygon fill="#666666" stroke="#666666" points="127.53,-1335.54 124.73,-1327.54 121.93,-1335.54 127.53,-1335.54"/>
</g>
<!-- ability_27 -->
<g id="node28" class="node">
<title>ability_27</title>
<path fill="#b2ebf2" stroke="black" d="M189.82,-1210.3C189.82,-1210.3 59.62,-1210.3 59.62,-1210.3 53.62,-1210.3 47.62,-1204.3 47.62,-1198.3 47.62,-1198.3 47.62,-1165 47.62,-1165 47.62,-1159 53.62,-1153 59.62,-1153 59.62,-1153 189.82,-1153 189.82,-1153 195.82,-1153 201.82,-1159 201.82,-1165 201.82,-1165 201.82,-1198.3 201.82,-1198.3 201.82,-1204.3 195.82,-1210.3 189.82,-1210.3"/>
<text xml:space="preserve" text-anchor="middle" x="124.72" y="-1186.4" font-family="Malgun Gothic" font-size="10.00">28. Collect IIS Web Logs</text>
<text xml:space="preserve" text-anchor="middle" x="124.72" y="-1172.15" font-family="Malgun Gothic" font-size="10.00">T1056.003 (collection)</text>
</g>
<!-- ability_26&#45;&gt;ability_27 -->
<g id="edge27" class="edge">
<title>ability_26&#45;&gt;ability_27</title>
<path fill="none" stroke="#666666" d="M124.72,-1267.94C124.72,-1253.51 124.72,-1235.71 124.72,-1220.11"/>
<polygon fill="#666666" stroke="#666666" points="127.53,-1220.24 124.73,-1212.24 121.93,-1220.24 127.53,-1220.24"/>
</g>
<!-- ability_28 -->
<g id="node29" class="node">
<title>ability_28</title>
<path fill="#b2ebf2" stroke="black" d="M210.45,-1095C210.45,-1095 39,-1095 39,-1095 33,-1095 27,-1089 27,-1083 27,-1083 27,-1049.7 27,-1049.7 27,-1043.7 33,-1037.7 39,-1037.7 39,-1037.7 210.45,-1037.7 210.45,-1037.7 216.45,-1037.7 222.45,-1043.7 222.45,-1049.7 222.45,-1049.7 222.45,-1083 222.45,-1083 222.45,-1089 216.45,-1095 210.45,-1095"/>
<text xml:space="preserve" text-anchor="middle" x="124.72" y="-1071.1" font-family="Malgun Gothic" font-size="10.00">29. Collect Corporate Documents</text>
<text xml:space="preserve" text-anchor="middle" x="124.72" y="-1056.85" font-family="Malgun Gothic" font-size="10.00">T1602 (collection)</text>
</g>
<!-- ability_27&#45;&gt;ability_28 -->
<g id="edge28" class="edge">
<title>ability_27&#45;&gt;ability_28</title>
<path fill="none" stroke="#666666" d="M124.72,-1152.64C124.72,-1138.21 124.72,-1120.41 124.72,-1104.81"/>
<polygon fill="#666666" stroke="#666666" points="127.53,-1104.94 124.73,-1096.94 121.93,-1104.94 127.53,-1104.94"/>
</g>
<!-- ability_29 -->
<g id="node30" class="node">
<title>ability_29</title>
<path fill="#b2ebf2" stroke="black" d="M237.45,-979.7C237.45,-979.7 12,-979.7 12,-979.7 6,-979.7 0,-973.7 0,-967.7 0,-967.7 0,-934.4 0,-934.4 0,-928.4 6,-922.4 12,-922.4 12,-922.4 237.45,-922.4 237.45,-922.4 243.45,-922.4 249.45,-928.4 249.45,-934.4 249.45,-934.4 249.45,-967.7 249.45,-967.7 249.45,-973.7 243.45,-979.7 237.45,-979.7"/>
<text xml:space="preserve" text-anchor="middle" x="124.72" y="-955.8" font-family="Malgun Gothic" font-size="10.00">30. Capture Active Window Titles (Simulated)</text>
<text xml:space="preserve" text-anchor="middle" x="124.72" y="-941.55" font-family="Malgun Gothic" font-size="10.00">T1113 (collection)</text>
</g>
<!-- ability_28&#45;&gt;ability_29 -->
<g id="edge29" class="edge">
<title>ability_28&#45;&gt;ability_29</title>
<path fill="none" stroke="#666666" d="M124.72,-1037.34C124.72,-1022.91 124.72,-1005.11 124.72,-989.51"/>
<polygon fill="#666666" stroke="#666666" points="127.53,-989.64 124.73,-981.64 121.93,-989.64 127.53,-989.64"/>
</g>
<!-- ability_30 -->
<g id="node31" class="node">
<title>ability_30</title>
<path fill="#b2ebf2" stroke="black" d="M196.57,-864.4C196.57,-864.4 52.88,-864.4 52.88,-864.4 46.88,-864.4 40.88,-858.4 40.88,-852.4 40.88,-852.4 40.88,-819.1 40.88,-819.1 40.88,-813.1 46.88,-807.1 52.88,-807.1 52.88,-807.1 196.57,-807.1 196.57,-807.1 202.57,-807.1 208.57,-813.1 208.57,-819.1 208.57,-819.1 208.57,-852.4 208.57,-852.4 208.57,-858.4 202.57,-864.4 196.57,-864.4"/>
<text xml:space="preserve" text-anchor="middle" x="124.72" y="-840.5" font-family="Malgun Gothic" font-size="10.00">31. Stage Discovery Results</text>
<text xml:space="preserve" text-anchor="middle" x="124.72" y="-826.25" font-family="Malgun Gothic" font-size="10.00">T1119 (collection)</text>
</g>
<!-- ability_29&#45;&gt;ability_30 -->
<g id="edge30" class="edge">
<title>ability_29&#45;&gt;ability_30</title>
<path fill="none" stroke="#666666" d="M124.72,-922.04C124.72,-907.61 124.72,-889.81 124.72,-874.21"/>
<polygon fill="#666666" stroke="#666666" points="127.53,-874.34 124.73,-866.34 121.93,-874.34 127.53,-874.34"/>
</g>
<!-- ability_31 -->
<g id="node32" class="node">
<title>ability_31</title>
<path fill="#c8e6c9" stroke="black" d="M200.32,-749.1C200.32,-749.1 49.12,-749.1 49.12,-749.1 43.12,-749.1 37.12,-743.1 37.12,-737.1 37.12,-737.1 37.12,-703.8 37.12,-703.8 37.12,-697.8 43.12,-691.8 49.12,-691.8 49.12,-691.8 200.32,-691.8 200.32,-691.8 206.32,-691.8 212.32,-697.8 212.32,-703.8 212.32,-703.8 212.32,-737.1 212.32,-737.1 212.32,-743.1 206.32,-749.1 200.32,-749.1"/>
<text xml:space="preserve" text-anchor="middle" x="124.72" y="-725.2" font-family="Malgun Gothic" font-size="10.00">32. Compress Collected Data</text>
<text xml:space="preserve" text-anchor="middle" x="124.72" y="-710.95" font-family="Malgun Gothic" font-size="10.00">T1002 (exfiltration)</text>
</g>
<!-- ability_30&#45;&gt;ability_31 -->
<g id="edge31" class="edge">
<title>ability_30&#45;&gt;ability_31</title>
<path fill="none" stroke="#666666" d="M124.72,-806.74C124.72,-792.31 124.72,-774.51 124.72,-758.91"/>
<polygon fill="#666666" stroke="#666666" points="127.53,-759.04 124.73,-751.04 121.93,-759.04 127.53,-759.04"/>
</g>
<!-- ability_32 -->
<g id="node33" class="node">
<title>ability_32</title>
<path fill="#c8e6c9" stroke="black" d="M200.32,-633.8C200.32,-633.8 49.12,-633.8 49.12,-633.8 43.12,-633.8 37.12,-627.8 37.12,-621.8 37.12,-621.8 37.12,-588.5 37.12,-588.5 37.12,-582.5 43.12,-576.5 49.12,-576.5 49.12,-576.5 200.32,-576.5 200.32,-576.5 206.32,-576.5 212.32,-582.5 212.32,-588.5 212.32,-588.5 212.32,-621.8 212.32,-621.8 212.32,-627.8 206.32,-633.8 200.32,-633.8"/>
<text xml:space="preserve" text-anchor="middle" x="124.72" y="-609.9" font-family="Malgun Gothic" font-size="10.00">33. Split Archive into Chunks</text>
<text xml:space="preserve" text-anchor="middle" x="124.72" y="-595.65" font-family="Malgun Gothic" font-size="10.00">T1030 (exfiltration)</text>
</g>
<!-- ability_31&#45;&gt;ability_32 -->
<g id="edge32" class="edge">
<title>ability_31&#45;&gt;ability_32</title>
<path fill="none" stroke="#666666" d="M124.72,-691.44C124.72,-677.01 124.72,-659.21 124.72,-643.61"/>
<polygon fill="#666666" stroke="#666666" points="127.53,-643.74 124.73,-635.74 121.93,-643.74 127.53,-643.74"/>
</g>
<!-- ability_33 -->
<g id="node34" class="node">
<title>ability_33</title>
<path fill="#c8e6c9" stroke="black" d="M216.45,-518.5C216.45,-518.5 33,-518.5 33,-518.5 27,-518.5 21,-512.5 21,-506.5 21,-506.5 21,-473.2 21,-473.2 21,-467.2 27,-461.2 33,-461.2 33,-461.2 216.45,-461.2 216.45,-461.2 222.45,-461.2 228.45,-467.2 228.45,-473.2 228.45,-473.2 228.45,-506.5 228.45,-506.5 228.45,-512.5 222.45,-518.5 216.45,-518.5"/>
<text xml:space="preserve" text-anchor="middle" x="124.72" y="-494.6" font-family="Malgun Gothic" font-size="10.00">34. Exfiltrate Data to Caldera Server</text>
<text xml:space="preserve" text-anchor="middle" x="124.72" y="-480.35" font-family="Malgun Gothic" font-size="10.00">T1537 (exfiltration)</text>
</g>
<!-- ability_32&#45;&gt;ability_33 -->
<g id="edge33" class="edge">
<title>ability_32&#45;&gt;ability_33</title>
<path fill="none" stroke="#666666" d="M124.72,-576.14C124.72,-561.71 124.72,-543.91 124.72,-528.31"/>
<polygon fill="#666666" stroke="#666666" points="127.53,-528.44 124.73,-520.44 121.93,-528.44 127.53,-528.44"/>
</g>
<!-- ability_34 -->
<g id="node35" class="node">
<title>ability_34</title>
<path fill="#d1c4e9" stroke="black" d="M200.32,-403.2C200.32,-403.2 49.12,-403.2 49.12,-403.2 43.12,-403.2 37.12,-397.2 37.12,-391.2 37.12,-391.2 37.12,-357.9 37.12,-357.9 37.12,-351.9 43.12,-345.9 49.12,-345.9 49.12,-345.9 200.32,-345.9 200.32,-345.9 206.32,-345.9 212.32,-351.9 212.32,-357.9 212.32,-357.9 212.32,-391.2 212.32,-391.2 212.32,-397.2 206.32,-403.2 200.32,-403.2"/>
<text xml:space="preserve" text-anchor="middle" x="124.72" y="-379.3" font-family="Malgun Gothic" font-size="10.00">35. Clear Security Event Logs</text>
<text xml:space="preserve" text-anchor="middle" x="124.72" y="-365.05" font-family="Malgun Gothic" font-size="10.00">T1070.001 (defense&#45;evasion)</text>
</g>
<!-- ability_33&#45;&gt;ability_34 -->
<g id="edge34" class="edge">
<title>ability_33&#45;&gt;ability_34</title>
<path fill="none" stroke="#666666" d="M124.72,-460.84C124.72,-446.41 124.72,-428.61 124.72,-413.01"/>
<polygon fill="#666666" stroke="#666666" points="127.53,-413.14 124.73,-405.14 121.93,-413.14 127.53,-413.14"/>
</g>
<!-- ability_35 -->
<g id="node36" class="node">
<title>ability_35</title>
<path fill="#d1c4e9" stroke="black" d="M198.45,-287.9C198.45,-287.9 51,-287.9 51,-287.9 45,-287.9 39,-281.9 39,-275.9 39,-275.9 39,-242.6 39,-242.6 39,-236.6 45,-230.6 51,-230.6 51,-230.6 198.45,-230.6 198.45,-230.6 204.45,-230.6 210.45,-236.6 210.45,-242.6 210.45,-242.6 210.45,-275.9 210.45,-275.9 210.45,-281.9 204.45,-287.9 198.45,-287.9"/>
<text xml:space="preserve" text-anchor="middle" x="124.72" y="-264" font-family="Malgun Gothic" font-size="10.00">36. Clear System Event Logs</text>
<text xml:space="preserve" text-anchor="middle" x="124.72" y="-249.75" font-family="Malgun Gothic" font-size="10.00">T1070.001 (defense&#45;evasion)</text>
</g>
<!-- ability_34&#45;&gt;ability_35 -->
<g id="edge35" class="edge">
<title>ability_34&#45;&gt;ability_35</title>
<path fill="none" stroke="#666666" d="M124.72,-345.54C124.72,-331.11 124.72,-313.31 124.72,-297.71"/>
<polygon fill="#666666" stroke="#666666" points="127.53,-297.84 124.73,-289.84 121.93,-297.84 127.53,-297.84"/>
</g>
<!-- ability_36 -->
<g id="node37" class="node">
<title>ability_36</title>
<path fill="#d1c4e9" stroke="black" d="M207.82,-172.6C207.82,-172.6 41.62,-172.6 41.62,-172.6 35.62,-172.6 29.62,-166.6 29.62,-160.6 29.62,-160.6 29.62,-127.3 29.62,-127.3 29.62,-121.3 35.62,-115.3 41.62,-115.3 41.62,-115.3 207.82,-115.3 207.82,-115.3 213.82,-115.3 219.82,-121.3 219.82,-127.3 219.82,-127.3 219.82,-160.6 219.82,-160.6 219.82,-166.6 213.82,-172.6 207.82,-172.6"/>
<text xml:space="preserve" text-anchor="middle" x="124.72" y="-148.7" font-family="Malgun Gothic" font-size="10.00">37. Clear Application Event Logs</text>
<text xml:space="preserve" text-anchor="middle" x="124.72" y="-134.45" font-family="Malgun Gothic" font-size="10.00">T1070.001 (defense&#45;evasion)</text>
</g>
<!-- ability_35&#45;&gt;ability_36 -->
<g id="edge36" class="edge">
<title>ability_35&#45;&gt;ability_36</title>
<path fill="none" stroke="#666666" d="M124.72,-230.24C124.72,-215.81 124.72,-198.01 124.72,-182.41"/>
<polygon fill="#666666" stroke="#666666" points="127.53,-182.54 124.73,-174.54 121.93,-182.54 127.53,-182.54"/>
</g>
<!-- ability_37 -->
<g id="node38" class="node">
<title>ability_37</title>
<path fill="#d1c4e9" stroke="black" d="M213.45,-57.3C213.45,-57.3 36,-57.3 36,-57.3 30,-57.3 24,-51.3 24,-45.3 24,-45.3 24,-12 24,-12 24,-6 30,0 36,0 36,0 213.45,0 213.45,0 219.45,0 225.45,-6 225.45,-12 225.45,-12 225.45,-45.3 225.45,-45.3 225.45,-51.3 219.45,-57.3 213.45,-57.3"/>
<text xml:space="preserve" text-anchor="middle" x="124.72" y="-33.4" font-family="Malgun Gothic" font-size="10.00">38. Delete Uploaded Malware Files</text>
<text xml:space="preserve" text-anchor="middle" x="124.72" y="-19.15" font-family="Malgun Gothic" font-size="10.00">T1070.010 (defense&#45;evasion)</text>
</g>
<!-- ability_36&#45;&gt;ability_37 -->
<g id="edge37" class="edge">
<title>ability_36&#45;&gt;ability_37</title>
<path fill="none" stroke="#666666" d="M124.72,-114.94C124.72,-100.51 124.72,-82.71 124.72,-67.11"/>
<polygon fill="#666666" stroke="#666666" points="127.53,-67.24 124.73,-59.24 121.93,-67.24 127.53,-67.24"/>
</g>
<!-- legend_exec -->
<g id="node39" class="node">
<title>legend_exec</title>
<path fill="#ffccbc" stroke="black" d="M315.08,-4316.28C315.08,-4316.28 252.38,-4316.28 252.38,-4316.28 246.38,-4316.28 240.38,-4310.28 240.38,-4304.28 240.38,-4304.28 240.38,-4285.23 240.38,-4285.23 240.38,-4279.23 246.38,-4273.23 252.38,-4273.23 252.38,-4273.23 315.08,-4273.23 315.08,-4273.23 321.08,-4273.23 327.08,-4279.23 327.08,-4285.23 327.08,-4285.23 327.08,-4304.28 327.08,-4304.28 327.08,-4310.28 321.08,-4316.28 315.08,-4316.28"/>
<text xml:space="preserve" text-anchor="middle" x="283.73" y="-4292.38" font-family="Malgun Gothic" font-size="10.00">Execution</text>
</g>
<!-- legend_priv -->
<g id="node40" class="node">
<title>legend_priv</title>
<path fill="#e1bee7" stroke="black" d="M480.45,-4316.28C480.45,-4316.28 375,-4316.28 375,-4316.28 369,-4316.28 363,-4310.28 363,-4304.28 363,-4304.28 363,-4285.23 363,-4285.23 363,-4279.23 369,-4273.23 375,-4273.23 375,-4273.23 480.45,-4273.23 480.45,-4273.23 486.45,-4273.23 492.45,-4279.23 492.45,-4285.23 492.45,-4285.23 492.45,-4304.28 492.45,-4304.28 492.45,-4310.28 486.45,-4316.28 480.45,-4316.28"/>
<text xml:space="preserve" text-anchor="middle" x="427.73" y="-4292.38" font-family="Malgun Gothic" font-size="10.00">Privilege Escalation</text>
</g>
<!-- legend_disc -->
<g id="node41" class="node">
<title>legend_disc</title>
<path fill="#bbdefb" stroke="black" d="M603.08,-4316.28C603.08,-4316.28 540.38,-4316.28 540.38,-4316.28 534.38,-4316.28 528.38,-4310.28 528.38,-4304.28 528.38,-4304.28 528.38,-4285.23 528.38,-4285.23 528.38,-4279.23 534.38,-4273.23 540.38,-4273.23 540.38,-4273.23 603.08,-4273.23 603.08,-4273.23 609.08,-4273.23 615.08,-4279.23 615.08,-4285.23 615.08,-4285.23 615.08,-4304.28 615.08,-4304.28 615.08,-4310.28 609.08,-4316.28 603.08,-4316.28"/>
<text xml:space="preserve" text-anchor="middle" x="571.73" y="-4292.38" font-family="Malgun Gothic" font-size="10.00">Discovery</text>
</g>
<!-- legend_exfil -->
<g id="node42" class="node">
<title>legend_exfil</title>
<path fill="#c8e6c9" stroke="black" d="M730.33,-4316.28C730.33,-4316.28 663.12,-4316.28 663.12,-4316.28 657.12,-4316.28 651.12,-4310.28 651.12,-4304.28 651.12,-4304.28 651.12,-4285.23 651.12,-4285.23 651.12,-4279.23 657.12,-4273.23 663.12,-4273.23 663.12,-4273.23 730.33,-4273.23 730.33,-4273.23 736.33,-4273.23 742.33,-4279.23 742.33,-4285.23 742.33,-4285.23 742.33,-4304.28 742.33,-4304.28 742.33,-4310.28 736.33,-4316.28 730.33,-4316.28"/>
<text xml:space="preserve" text-anchor="middle" x="696.73" y="-4292.38" font-family="Malgun Gothic" font-size="10.00">Exfiltration</text>
</g>
</g>
</svg>
