<?xml version="1.0" encoding="UTF-8" standalone="no"?>
<!DOCTYPE svg PUBLIC "-//W3C//DTD SVG 1.1//EN"
 "http://www.w3.org/Graphics/SVG/1.1/DTD/svg11.dtd">
<!-- Generated by graphviz version 14.0.2 (20251019.1705)
 -->
<!-- Pages: 1 -->
<svg width="2159pt" height="109pt"
 viewBox="0.00 0.00 2159.00 109.00" xmlns="http://www.w3.org/2000/svg" xmlns:xlink="http://www.w3.org/1999/xlink">
<g id="graph0" class="graph" transform="scale(1 1) rotate(0) translate(4 104.7)">
<polygon fill="white" stroke="none" points="-4,4 -4,-104.7 2155.15,-104.7 2155.15,4 -4,4"/>
<text xml:space="preserve" text-anchor="middle" x="1075.58" y="-83.4" font-family="Malgun Gothic" font-size="14.00">Kill Chain: Tactic Flow</text>
<!-- initial&#45;access -->
<g id="node1" class="node">
<title>initial&#45;access</title>
<path fill="#ffe0b2" stroke="black" stroke-width="2" d="M125.1,-73.2C125.1,-73.2 12,-73.2 12,-73.2 6,-73.2 0,-67.2 0,-61.2 0,-61.2 0,-12 0,-12 0,-6 6,0 12,0 12,0 125.1,0 125.1,0 131.1,0 137.1,-6 137.1,-12 137.1,-12 137.1,-61.2 137.1,-61.2 137.1,-67.2 131.1,-73.2 125.1,-73.2"/>
<text xml:space="preserve" text-anchor="middle" x="68.55" y="-41.15" font-family="Malgun Gothic" font-size="11.00">INITIAL&#45;ACCESS</text>
<text xml:space="preserve" text-anchor="middle" x="68.55" y="-26.15" font-family="Malgun Gothic" font-size="11.00">(3 abilities)</text>
</g>
<!-- privilege&#45;escalation -->
<g id="node2" class="node">
<title>privilege&#45;escalation</title>
<path fill="#e1bee7" stroke="black" stroke-width="2" d="M408.45,-73.2C408.45,-73.2 257.1,-73.2 257.1,-73.2 251.1,-73.2 245.1,-67.2 245.1,-61.2 245.1,-61.2 245.1,-12 245.1,-12 245.1,-6 251.1,0 257.1,0 257.1,0 408.45,0 408.45,0 414.45,0 420.45,-6 420.45,-12 420.45,-12 420.45,-61.2 420.45,-61.2 420.45,-67.2 414.45,-73.2 408.45,-73.2"/>
<text xml:space="preserve" text-anchor="middle" x="332.78" y="-41.15" font-family="Malgun Gothic" font-size="11.00">PRIVILEGE&#45;ESCALATION</text>
<text xml:space="preserve" text-anchor="middle" x="332.78" y="-26.15" font-family="Malgun Gothic" font-size="11.00">(4 abilities)</text>
</g>
<!-- initial&#45;access&#45;&gt;privilege&#45;escalation -->
<g id="edge6" class="edge">
<title>initial&#45;access&#45;&gt;privilege&#45;escalation</title>
<path fill="none" stroke="#666666" stroke-width="2" d="M137.76,-36.6C166.3,-36.6 200.06,-36.6 231.34,-36.6"/>
<polygon fill="#666666" stroke="#666666" stroke-width="2" points="231.09,-40.1 241.09,-36.6 231.09,-33.1 231.09,-40.1"/>
</g>
<!-- persistence -->
<g id="node3" class="node">
<title>persistence</title>
<path fill="#f8bbd0" stroke="black" stroke-width="2" d="M640.8,-73.2C640.8,-73.2 540.45,-73.2 540.45,-73.2 534.45,-73.2 528.45,-67.2 528.45,-61.2 528.45,-61.2 528.45,-12 528.45,-12 528.45,-6 534.45,0 540.45,0 540.45,0 640.8,0 640.8,0 646.8,0 652.8,-6 652.8,-12 652.8,-12 652.8,-61.2 652.8,-61.2 652.8,-67.2 646.8,-73.2 640.8,-73.2"/>
<text xml:space="preserve" text-anchor="middle" x="590.63" y="-41.15" font-family="Malgun Gothic" font-size="11.00">PERSISTENCE</text>
<text xml:space="preserve" text-anchor="middle" x="590.63" y="-26.15" font-family="Malgun Gothic" font-size="11.00">(2 abilities)</text>
</g>
<!-- privilege&#45;escalation&#45;&gt;persistence -->
<g id="edge5" class="edge">
<title>privilege&#45;escalation&#45;&gt;persistence</title>
<path fill="none" stroke="#666666" stroke-width="2" d="M421.11,-36.6C451.62,-36.6 485.58,-36.6 514.97,-36.6"/>
<polygon fill="#666666" stroke="#666666" stroke-width="2" points="514.66,-40.1 524.66,-36.6 514.66,-33.1 514.66,-40.1"/>
</g>
<!-- credential&#45;access -->
<g id="node4" class="node">
<title>credential&#45;access</title>
<path fill="#c5cae9" stroke="black" stroke-width="2" d="M913.65,-73.2C913.65,-73.2 772.8,-73.2 772.8,-73.2 766.8,-73.2 760.8,-67.2 760.8,-61.2 760.8,-61.2 760.8,-12 760.8,-12 760.8,-6 766.8,0 772.8,0 772.8,0 913.65,0 913.65,0 919.65,0 925.65,-6 925.65,-12 925.65,-12 925.65,-61.2 925.65,-61.2 925.65,-67.2 919.65,-73.2 913.65,-73.2"/>
<text xml:space="preserve" text-anchor="middle" x="843.23" y="-41.15" font-family="Malgun Gothic" font-size="11.00">CREDENTIAL&#45;ACCESS</text>
<text xml:space="preserve" text-anchor="middle" x="843.23" y="-26.15" font-family="Malgun Gothic" font-size="11.00">(1 abilities)</text>
</g>
<!-- persistence&#45;&gt;credential&#45;access -->
<g id="edge2" class="edge">
<title>persistence&#45;&gt;credential&#45;access</title>
<path fill="none" stroke="#666666" stroke-width="2" d="M653.57,-36.6C681.85,-36.6 715.98,-36.6 747.38,-36.6"/>
<polygon fill="#666666" stroke="#666666" stroke-width="2" points="747.16,-40.1 757.16,-36.6 747.16,-33.1 747.16,-40.1"/>
</g>
<!-- discovery -->
<g id="node5" class="node">
<title>discovery</title>
<path fill="#bbdefb" stroke="black" stroke-width="2" d="M1140,-73.2C1140,-73.2 1045.65,-73.2 1045.65,-73.2 1039.65,-73.2 1033.65,-67.2 1033.65,-61.2 1033.65,-61.2 1033.65,-12 1033.65,-12 1033.65,-6 1039.65,0 1045.65,0 1045.65,0 1140,0 1140,0 1146,0 1152,-6 1152,-12 1152,-12 1152,-61.2 1152,-61.2 1152,-67.2 1146,-73.2 1140,-73.2"/>
<text xml:space="preserve" text-anchor="middle" x="1092.83" y="-41.15" font-family="Malgun Gothic" font-size="11.00">DISCOVERY</text>
<text xml:space="preserve" text-anchor="middle" x="1092.83" y="-26.15" font-family="Malgun Gothic" font-size="11.00">(14 abilities)</text>
</g>
<!-- credential&#45;access&#45;&gt;discovery -->
<g id="edge4" class="edge">
<title>credential&#45;access&#45;&gt;discovery</title>
<path fill="none" stroke="#666666" stroke-width="2" d="M926.33,-36.6C956.62,-36.6 990.67,-36.6 1019.99,-36.6"/>
<polygon fill="#666666" stroke="#666666" stroke-width="2" points="1019.63,-40.1 1029.63,-36.6 1019.63,-33.1 1019.63,-40.1"/>
</g>
<!-- lateral&#45;movement -->
<g id="node6" class="node">
<title>lateral&#45;movement</title>
<path fill="#b3e5fc" stroke="black" stroke-width="2" d="M1413.6,-73.2C1413.6,-73.2 1272,-73.2 1272,-73.2 1266,-73.2 1260,-67.2 1260,-61.2 1260,-61.2 1260,-12 1260,-12 1260,-6 1266,0 1272,0 1272,0 1413.6,0 1413.6,0 1419.6,0 1425.6,-6 1425.6,-12 1425.6,-12 1425.6,-61.2 1425.6,-61.2 1425.6,-67.2 1419.6,-73.2 1413.6,-73.2"/>
<text xml:space="preserve" text-anchor="middle" x="1342.8" y="-41.15" font-family="Malgun Gothic" font-size="11.00">LATERAL&#45;MOVEMENT</text>
<text xml:space="preserve" text-anchor="middle" x="1342.8" y="-26.15" font-family="Malgun Gothic" font-size="11.00">(3 abilities)</text>
</g>
<!-- discovery&#45;&gt;lateral&#45;movement -->
<g id="edge7" class="edge">
<title>discovery&#45;&gt;lateral&#45;movement</title>
<path fill="none" stroke="#666666" stroke-width="2" d="M1152.91,-36.6C1180.86,-36.6 1214.94,-36.6 1246.42,-36.6"/>
<polygon fill="#666666" stroke="#666666" stroke-width="2" points="1246.23,-40.1 1256.23,-36.6 1246.23,-33.1 1246.23,-40.1"/>
</g>
<!-- collection -->
<g id="node7" class="node">
<title>collection</title>
<path fill="#b2ebf2" stroke="black" stroke-width="2" d="M1642.95,-73.2C1642.95,-73.2 1545.6,-73.2 1545.6,-73.2 1539.6,-73.2 1533.6,-67.2 1533.6,-61.2 1533.6,-61.2 1533.6,-12 1533.6,-12 1533.6,-6 1539.6,0 1545.6,0 1545.6,0 1642.95,0 1642.95,0 1648.95,0 1654.95,-6 1654.95,-12 1654.95,-12 1654.95,-61.2 1654.95,-61.2 1654.95,-67.2 1648.95,-73.2 1642.95,-73.2"/>
<text xml:space="preserve" text-anchor="middle" x="1594.28" y="-41.15" font-family="Malgun Gothic" font-size="11.00">COLLECTION</text>
<text xml:space="preserve" text-anchor="middle" x="1594.28" y="-26.15" font-family="Malgun Gothic" font-size="11.00">(4 abilities)</text>
</g>
<!-- lateral&#45;movement&#45;&gt;collection -->
<g id="edge3" class="edge">
<title>lateral&#45;movement&#45;&gt;collection</title>
<path fill="none" stroke="#666666" stroke-width="2" d="M1426.53,-36.6C1456.8,-36.6 1490.8,-36.6 1520.17,-36.6"/>
<polygon fill="#666666" stroke="#666666" stroke-width="2" points="1519.85,-40.1 1529.85,-36.6 1519.85,-33.1 1519.85,-40.1"/>
</g>
<!-- exfiltration -->
<g id="node8" class="node">
<title>exfiltration</title>
<path fill="#c8e6c9" stroke="black" stroke-width="2" d="M1878.3,-73.2C1878.3,-73.2 1774.95,-73.2 1774.95,-73.2 1768.95,-73.2 1762.95,-67.2 1762.95,-61.2 1762.95,-61.2 1762.95,-12 1762.95,-12 1762.95,-6 1768.95,0 1774.95,0 1774.95,0 1878.3,0 1878.3,0 1884.3,0 1890.3,-6 1890.3,-12 1890.3,-12 1890.3,-61.2 1890.3,-61.2 1890.3,-67.2 1884.3,-73.2 1878.3,-73.2"/>
<text xml:space="preserve" text-anchor="middle" x="1826.62" y="-41.15" font-family="Malgun Gothic" font-size="11.00">EXFILTRATION</text>
<text xml:space="preserve" text-anchor="middle" x="1826.62" y="-26.15" font-family="Malgun Gothic" font-size="11.00">(3 abilities)</text>
</g>
<!-- collection&#45;&gt;exfiltration -->
<g id="edge8" class="edge">
<title>collection&#45;&gt;exfiltration</title>
<path fill="none" stroke="#666666" stroke-width="2" d="M1655.8,-36.6C1684.49,-36.6 1719.07,-36.6 1749.52,-36.6"/>
<polygon fill="#666666" stroke="#666666" stroke-width="2" points="1749.26,-40.1 1759.26,-36.6 1749.26,-33.1 1749.26,-40.1"/>
</g>
<!-- defense&#45;evasion -->
<g id="node9" class="node">
<title>defense&#45;evasion</title>
<path fill="#d1c4e9" stroke="black" stroke-width="2" d="M2139.15,-73.2C2139.15,-73.2 2010.3,-73.2 2010.3,-73.2 2004.3,-73.2 1998.3,-67.2 1998.3,-61.2 1998.3,-61.2 1998.3,-12 1998.3,-12 1998.3,-6 2004.3,0 2010.3,0 2010.3,0 2139.15,0 2139.15,0 2145.15,0 2151.15,-6 2151.15,-12 2151.15,-12 2151.15,-61.2 2151.15,-61.2 2151.15,-67.2 2145.15,-73.2 2139.15,-73.2"/>
<text xml:space="preserve" text-anchor="middle" x="2074.72" y="-41.15" font-family="Malgun Gothic" font-size="11.00">DEFENSE&#45;EVASION</text>
<text xml:space="preserve" text-anchor="middle" x="2074.72" y="-26.15" font-family="Malgun Gothic" font-size="11.00">(4 abilities)</text>
</g>
<!-- exfiltration&#45;&gt;defense&#45;evasion -->
<g id="edge1" class="edge">
<title>exfiltration&#45;&gt;defense&#45;evasion</title>
<path fill="none" stroke="#666666" stroke-width="2" d="M1891,-36.6C1919.54,-36.6 1953.73,-36.6 1984.78,-36.6"/>
<polygon fill="#666666" stroke="#666666" stroke-width="2" points="1984.38,-40.1 1994.38,-36.6 1984.38,-33.1 1984.38,-40.1"/>
</g>
</g>
</svg>
